# xmcd
#
# Track frame offsets: 
#        150
#        15993
#        27535
#        42043
#        60820
#        76735
#        93155
#        109643
#        123070
#        143205
#        157088
#        170665
#        188665
#        205148
#        218678
#        230618
#        245365
#
# Disc length: 3438 seconds
#
# Revision: 2
# Processed by: cddbd v1.5.1PL0 Copyright (c) Steve Scherf et al.
# Submitted via: ExactAudioCopy v0.95a3
#
DISCID=ce0d6c11
DTITLE=Various Artist - The Best Of Country Song 2
DYEAR=1900
DGENRE=Country
TTITLE0=Kenny Rogers - The gambler
TTITLE1=Crystal Gayle - Don`t it make my brown eye`s blue
TTITLE2=Glen Campbell - Rhineston cowboy
TTITLE3=Juice Newton - Angel of the morning
TTITLE4=Willie Nelson - Always on my mind
TTITLE5=Anne Murray - You need me
TTITLE6=Kenny Rogers - Lucille
TTITLE7=Joan Baez - Help me make it through the night
TTITLE8=Alabama - The close you get
TTITLE9=Olivia Newton John - Jolene
TTITLE10=Carpenters - Sweet sweet smile
TTITLE11=Eddie Rabbitt and Crystal Gayle - You and I
TTITLE12=Kenny Rogers - You decorated my life
TTITLE13=Glen Campbell - Southern nights
TTITLE14=Marie Osmond - Paper rose
TTITLE15=Bellamy Brothers - Let your love flow
TTITLE16=Anne Murray - I just falling love again
EXTD=
EXTT0=
EXTT1=
EXTT2=
EXTT3=
EXTT4=
EXTT5=
EXTT6=
EXTT7=
EXTT8=
EXTT9=
EXTT10=
EXTT11=
EXTT12=
EXTT13=
EXTT14=
EXTT15=
EXTT16=
PLAYORDER=
